<svg width="192" height="192" viewBox="0 0 192 192" fill="none" xmlns="http://www.w3.org/2000/svg">
<path d="M192 96C192 149.019 149.019 192 96 192C42.9807 192 0 149.019 0 96C0 42.9807 42.9807 0 96 0C149.019 0 192 42.9807 192 96Z" fill="#1B3664"/>
<path d="M83.1562 165.087C83.2691 163.162 84.5117 160.955 86.8838 158.465C89.3688 155.862 93.0399 153.768 97.897 152.183L99.422 151.674C104.844 149.863 109.249 148.278 112.638 146.92C116.027 145.561 117.721 143.411 117.721 140.468C117.721 138.317 117.043 136.846 115.688 136.053C114.332 135.148 112.299 134.639 109.588 134.525C106.877 134.299 103.488 134.186 99.422 134.186H97.897C90.7808 134.186 85.1329 133.393 80.9535 131.809C76.7741 130.224 74.6844 126.772 74.6844 121.452C74.6844 116.472 76.6047 112.68 80.4452 110.076C84.2858 107.36 90.103 106.001 97.897 106.001H99.422C102.924 106.001 106.312 105.832 109.588 105.492C112.977 105.039 115.744 104.19 117.89 102.945C120.15 101.7 121.279 99.8326 121.279 97.3424C121.279 94.2863 119.359 92.362 115.518 91.5697C111.791 90.7774 106.425 90.3812 99.422 90.3812H96.0333C91.9668 90.3812 88.4652 90.3812 85.5283 90.3812C82.7044 90.268 80.2193 90.0416 78.0731 89.7021C76.0399 89.2493 74.1761 88.5702 72.4818 87.6647C70.6745 86.7591 69.1496 85.4009 67.907 83.5898C66.6645 81.6656 66.0433 79.2886 66.0433 76.4588C66.0433 72.2708 67.3423 68.5921 69.9403 65.4228C72.6512 62.1403 76.3788 59.5935 81.123 57.7825C85.9801 55.8582 91.515 54.8961 97.7276 54.8961H99.422C101.342 54.8961 103.488 55.0093 105.86 55.2357C108.346 55.3489 110.661 55.6885 112.807 56.2544L107.385 56.9335C109.08 54.5566 110.831 52.8021 112.638 51.6702C114.445 50.5383 116.253 49.9724 118.06 49.9724C120.093 49.9724 122.013 50.4817 123.821 51.5004C125.741 52.4059 127.266 53.5944 128.395 55.0659C129.638 56.5374 130.259 58.0654 130.259 59.6501C130.259 60.1029 130.259 60.5556 130.259 61.0084C130.259 61.4611 130.203 61.8007 130.09 62.0271C129.412 61.9139 128.734 61.8573 128.056 61.8573C127.379 61.7441 126.588 61.6875 125.684 61.6875C123.086 61.6875 120.827 62.0837 118.907 62.876C120.15 63.3288 121.392 63.725 122.635 64.0645C123.877 64.4041 125.063 64.5739 126.193 64.5739C127.435 64.5739 128.452 64.4041 129.243 64.0645V65.7624C128.113 66.1019 126.757 66.3849 125.176 66.6113C123.595 66.8377 121.787 66.9509 119.754 66.9509C117.947 66.9509 115.801 66.6679 113.316 66.102C110.944 65.4228 109.136 64.0645 107.894 62.0271L116.874 65.7624C114.163 64.97 111.169 64.4607 107.894 64.2343C104.731 63.8947 101.851 63.725 99.2525 63.725H97.7276C90.2725 63.725 84.6811 64.8569 80.9535 67.1207C77.226 69.2713 75.3622 72.1576 75.3622 75.7797C75.3622 78.4963 76.3223 80.2507 78.2426 81.043C80.2758 81.7222 83.1562 82.0617 86.8838 82.0617C88.4652 82.0617 90.103 82.0617 91.7974 82.0617C93.6047 81.9486 95.5814 81.892 97.7276 81.892H99.422C109.023 81.892 116.365 82.9107 121.449 84.9481C126.645 86.8723 129.243 90.7208 129.243 96.4935C129.243 98.8705 128.847 101.078 128.056 103.115C127.266 105.153 125.797 106.964 123.651 108.548C121.618 110.133 118.625 111.378 114.671 112.284C110.831 113.189 105.748 113.642 99.422 113.642H97.897C93.8306 113.642 90.6678 113.981 88.4087 114.66C86.1495 115.34 84.5681 116.245 83.6645 117.377C82.8738 118.396 82.4784 119.584 82.4784 120.943C82.4784 122.98 83.2127 124.451 84.6811 125.357C86.1495 126.262 88.0698 126.828 90.4419 127.055C92.814 127.281 95.299 127.394 97.897 127.394H99.422C105.973 127.394 111.056 127.847 114.671 128.753C118.286 129.658 120.827 131.016 122.296 132.828C123.877 134.525 124.668 136.789 124.668 139.619C124.668 142.788 123.877 145.392 122.296 147.429C120.827 149.353 118.625 150.995 115.688 152.353C113.542 153.372 111 154.277 108.063 155.069C105.239 155.862 102.359 156.711 99.422 157.616L97.897 158.125C94.6213 159.257 91.8539 160.389 89.5947 161.521C87.4485 162.54 85.3024 163.728 83.1562 165.087ZM96.2027 171.369L93.6612 42.1622C93.6612 40.6908 94.0565 39.4457 94.8472 38.427C95.7509 37.2951 97.0499 36.7291 98.7442 36.7291C100.439 36.7291 101.681 37.2951 102.472 38.427C103.375 39.4457 103.827 40.6908 103.827 42.1622L101.116 171.369H96.2027ZM119.754 57.7825C120.997 57.7825 122.126 57.2165 123.143 56.0846L121.11 55.745C120.545 55.5187 119.98 55.4055 119.415 55.4055C118.851 55.2923 118.286 55.2357 117.721 55.2357C116.817 55.2357 116.083 55.5187 115.518 56.0846C116.648 57.2165 118.06 57.7825 119.754 57.7825Z" fill="white"/>
</svg>
