<svg width="512" height="512" viewBox="0 0 512 512" fill="none" xmlns="http://www.w3.org/2000/svg">
<path d="M512 256C512 397.385 397.385 512 256 512C114.615 512 0 397.385 0 256C0 114.615 114.615 0 256 0C397.385 0 512 114.615 512 256Z" fill="#1B3664"/>
<path d="M221.75 440.231C222.051 435.1 225.364 429.214 231.69 422.573C238.317 415.631 248.106 410.047 261.059 405.821L265.125 404.463C279.584 399.634 291.331 395.408 300.368 391.786C309.404 388.164 313.923 382.429 313.923 374.581C313.923 368.846 312.115 364.922 308.501 362.809C304.886 360.394 299.464 359.036 292.235 358.734C285.006 358.131 275.969 357.829 265.125 357.829H261.059C242.082 357.829 227.021 355.716 215.876 351.49C204.731 347.264 199.159 338.058 199.159 323.872C199.159 310.591 204.279 300.479 214.521 293.537C224.762 286.293 240.275 282.671 261.059 282.671H265.125C274.463 282.671 283.5 282.218 292.235 281.312C301.271 280.105 308.651 277.841 314.374 274.521C320.399 271.201 323.411 266.22 323.411 259.58C323.411 251.43 318.29 246.299 308.049 244.186C298.109 242.073 283.801 241.017 265.125 241.017H256.089C245.245 241.017 235.907 241.017 228.075 241.017C220.545 240.715 213.918 240.111 208.195 239.206C202.773 237.998 197.803 236.187 193.285 233.772C188.465 231.358 184.399 227.736 181.085 222.906C177.772 217.775 176.115 211.436 176.115 203.89C176.115 192.722 179.579 182.912 186.507 174.461C193.737 165.707 203.677 158.916 216.328 154.087C229.28 148.955 244.04 146.39 260.607 146.39H265.125C270.246 146.39 275.969 146.691 282.295 147.295C288.921 147.597 295.096 148.503 300.82 150.012L286.361 151.823C290.879 145.484 295.548 140.806 300.368 137.787C305.187 134.769 310.007 133.26 314.826 133.26C320.248 133.26 325.369 134.618 330.188 137.334C335.309 139.749 339.375 142.919 342.388 146.842C345.701 150.766 347.358 154.841 347.358 159.067C347.358 160.274 347.358 161.482 347.358 162.689C347.358 163.896 347.207 164.802 346.906 165.406C345.099 165.104 343.291 164.953 341.484 164.953C339.677 164.651 337.568 164.5 335.158 164.5C328.23 164.5 322.206 165.557 317.085 167.669C320.399 168.877 323.712 169.933 327.025 170.839C330.339 171.744 333.502 172.197 336.514 172.197C339.827 172.197 342.538 171.744 344.647 170.839V175.366C341.635 176.272 338.02 177.026 333.803 177.63C329.586 178.234 324.766 178.536 319.344 178.536C314.525 178.536 308.802 177.781 302.175 176.272C295.849 174.461 291.03 170.839 287.717 165.406L311.663 175.366C304.434 173.253 296.452 171.895 287.717 171.291C279.282 170.386 271.601 169.933 264.673 169.933H260.607C240.727 169.933 225.816 172.952 215.876 178.988C205.936 184.723 200.966 192.42 200.966 202.079C200.966 209.323 203.526 214.002 208.647 216.115C214.069 217.926 221.75 218.831 231.69 218.831C235.907 218.831 240.275 218.831 244.793 218.831C249.613 218.529 254.884 218.379 260.607 218.379H265.125C290.729 218.379 310.308 221.095 323.863 226.528C337.719 231.66 344.647 241.922 344.647 257.316C344.647 263.655 343.592 269.54 341.484 274.974C339.375 280.407 335.46 285.236 329.736 289.462C324.315 293.688 316.332 297.008 305.79 299.423C295.548 301.837 281.993 303.045 265.125 303.045H261.059C250.215 303.045 241.781 303.95 235.756 305.761C229.732 307.572 225.515 309.987 223.105 313.005C220.997 315.722 219.943 318.891 219.943 322.513C219.943 327.947 221.9 331.87 225.816 334.285C229.732 336.7 234.853 338.209 241.178 338.813C247.504 339.416 254.131 339.718 261.059 339.718H265.125C282.596 339.718 296.151 340.926 305.79 343.34C315.429 345.755 322.206 349.377 326.122 354.207C330.339 358.734 332.447 364.771 332.447 372.317C332.447 380.769 330.339 387.711 326.122 393.144C322.206 398.275 316.332 402.652 308.501 406.274C302.777 408.991 296 411.405 288.168 413.518C280.638 415.631 272.957 417.895 265.125 420.31L261.059 421.668C252.323 424.686 244.944 427.705 238.919 430.723C233.196 433.44 227.473 436.609 221.75 440.231ZM256.541 456.983L249.763 112.433C249.763 108.509 250.817 105.188 252.926 102.472C255.336 99.4535 258.8 97.9443 263.318 97.9443C267.836 97.9443 271.15 99.4535 273.258 102.472C275.668 105.188 276.873 108.509 276.873 112.433L269.644 456.983H256.541ZM319.344 154.087C322.658 154.087 325.67 152.577 328.381 149.559L322.959 148.653C321.453 148.05 319.947 147.748 318.441 147.748C316.935 147.446 315.429 147.295 313.923 147.295C311.513 147.295 309.555 148.05 308.049 149.559C311.061 152.577 314.826 154.087 319.344 154.087Z" fill="white"/>
</svg>
